{"title":"Top Gear S16E03 HDTV XviD-FoV","uid":6156013,"size":576607288,"categoryP":"video","categoryS":"tv_shows","magnet":"?xt=urn:btih:fe4641fab98791e93c0f12f3b436ac0b1165e1bf&amp;dn=Top+Gear+S16E03+HDTV+XviD-FoV&amp;tr=udp%3A%2F%2Ftracker.openbittorrent.com%3A80&amp;tr=udp%3A%2F%2Fopen.demonii.com%3A1337&amp;tr=udp%3A%2F%2Ftracker.coppersurfer.tk%3A6969&amp;tr=udp%3A%2F%2Fexodus.desync.com%3A6969","seeders":1,"leechers":0,"uploader":"TheCloon","files":4,"time":1297038001,"description":"[code]\nFormat                           : AVI\nFormat/Info                      : Audio Video Interleave\nFile size                        : 550 MiB\nDuration                         : 1h 1mn\nOverall bit rate                 : 1 250 Kbps\nWriting application              : transcode-1.1.5\n\nVideo\nID                               : 0\nFormat                           : MPEG-4 Visual\nFormat profile                   : Advanced Simple@L5\nFormat settings, BVOP            : 2\nFormat settings, QPel            : No\nFormat settings, GMC             : No warppoints\nFormat settings, Matrix          : Default (H.263)\nCodec ID                         : XVID\nCodec ID/Hint                    : XviD\nDuration                         : 1h 1mn\nBit rate                         : 1 109 Kbps\nWidth                            : 624 pixels\nHeight                           : 352 pixels\nDisplay aspect ratio             : 16:9\nFrame rate                       : 25.000 fps\nColor space                      : YUV\nChroma subsampling               : 4:2:0\nBit depth                        : 8 bits\nScan type                        : Progressive\nCompression mode                 : Lossy\nBits/(Pixel*Frame)               : 0.202\nStream size                      : 487 MiB (89%)\nWriting library                  : XviD 1.2.1 (UTC 2008-12-04)\n\nAudio\nID                               : 1\nFormat                           : MPEG Audio\nFormat version                   : Version 1\nFormat profile                   : Layer 3\nMode                             : Joint stereo\nMode extension                   : MS Stereo\nCodec ID                         : 55\nCodec ID/Hint                    : MP3\nDuration                         : 1h 1mn\nBit rate mode                    : Variable\nBit rate                         : 128 Kbps\nChannel(s)                       : 2 channels\nSampling rate                    : 48.0 KHz\nCompression mode                 : Lossy\nStream size                      : 56.7 MiB (10%)\nAlignment                        : Aligned on interleaves\nInterleave, duration             : 24 ms (0.60 video frame)\n[/code]\n\nPlot:\nJeremy Clarkson, Richard Hammond and James May head to Albania to test the super luxurious Rolls-Royce Ghost, Bentley Mulsanne and Mercedes S65 AMG. Back on home soil, Jeremy is out on the track in a trio of high-powered hatchbacks, the Ford Focus RS500, the Prodrive Impreza CS400 and the one-off Volvo C30 PPC, whilst Jonathan Ross is the Star in the Reasonably Priced Car. \n","torrent":{"xt":"urn:btih:fe4641fab98791e93c0f12f3b436ac0b1165e1bf","amp;dn":"Top+Gear+S16E03+HDTV+XviD-FoV","amp;tr":["udp%3A%2F%2Ftracker.openbittorrent.com%3A80","udp%3A%2F%2Fopen.demonii.com%3A1337","udp%3A%2F%2Ftracker.coppersurfer.tk%3A6969","udp%3A%2F%2Fexodus.desync.com%3A6969"],"infoHash":"fe4641fab98791e93c0f12f3b436ac0b1165e1bf","infoHashBuffer":{"type":"Buffer","data":[254,70,65,250,185,135,145,233,60,15,18,243,180,54,172,11,17,101,225,191]},"announce":[],"urlList":[]}}